<?xml version="1.0" standalone="no"?>
<!DOCTYPE svg PUBLIC "-//W3C//DTD SVG 20010904//EN"
 "http://www.w3.org/TR/2001/REC-SVG-20010904/DTD/svg10.dtd">
<svg version="1.0" xmlns="http://www.w3.org/2000/svg"
 width="252.000000pt" height="252.000000pt" viewBox="0 0 252.000000 252.000000"
 preserveAspectRatio="xMidYMid meet">
<metadata>
Created by potrace 1.11, written by Peter Selinger 2001-2013
</metadata>
<g transform="translate(0.000000,252.000000) scale(0.100000,-0.100000)"
fill="#000000" stroke="none">
<path d="M303 2496 c-106 -34 -200 -116 -254 -223 l-34 -67 0 -945 0 -946 31
-65 c40 -83 117 -161 203 -203 l66 -32 945 0 945 0 65 32 c85 42 164 120 204
203 l31 65 0 946 0 945 -34 66 c-43 85 -118 160 -201 201 l-65 32 -930 2
c-749 1 -938 -1 -972 -11z"/>
</g>
</svg>
